<?xml version="1.0" encoding="UTF-8" standalone="no"?>
<svg
   xmlns:dc="http://purl.org/dc/elements/1.1/"
   xmlns:cc="http://creativecommons.org/ns#"
   xmlns:rdf="http://www.w3.org/1999/02/22-rdf-syntax-ns#"
   xmlns:svg="http://www.w3.org/2000/svg"
   xmlns="http://www.w3.org/2000/svg"
   xmlns:sodipodi="http://sodipodi.sourceforge.net/DTD/sodipodi-0.dtd"
   xmlns:inkscape="http://www.inkscape.org/namespaces/inkscape"
   version="1.1"
   id="Capa_1"
   x="0px"
   y="0px"
   viewBox="0 0 300 300"
   xml:space="preserve"
   sodipodi:docname="outlook.svg"
   width="300"
   height="300"
   inkscape:version="1.0.1 (3bc2e813f5, 2020-09-07)"><metadata
   id="metadata43"><rdf:RDF><cc:Work
       rdf:about=""><dc:format>image/svg+xml</dc:format><dc:type
         rdf:resource="http://purl.org/dc/dcmitype/StillImage" /><dc:title></dc:title></cc:Work></rdf:RDF></metadata><defs
   id="defs41" /><sodipodi:namedview
   pagecolor="#ffffff"
   bordercolor="#666666"
   borderopacity="1"
   objecttolerance="10"
   gridtolerance="10"
   guidetolerance="10"
   inkscape:pageopacity="0"
   inkscape:pageshadow="2"
   inkscape:window-width="1366"
   inkscape:window-height="705"
   id="namedview39"
   showgrid="false"
   inkscape:zoom="1.0074695"
   inkscape:cx="256"
   inkscape:cy="176.59313"
   inkscape:window-x="-8"
   inkscape:window-y="-8"
   inkscape:window-maximized="1"
   inkscape:current-layer="Capa_1" />


<g
   id="g871"
   transform="matrix(0.57194705,0,0,0.57194705,3.5815552,3.5814294)"><path
     style="fill:#1976d2"
     d="M 496,112.011 H 272 c -8.832,0 -16,7.168 -16,16 0,8.832 7.168,16 16,16 h 177.376 l -98.304,76.448 -70.496,-44.832 -17.152,27.008 80,50.88 c 2.592,1.664 5.6,2.496 8.576,2.496 3.456,0 6.944,-1.12 9.824,-3.36 L 480,160.715 V 368.011 H 272 c -8.832,0 -16,7.168 -16,16 0,8.832 7.168,16 16,16 h 224 c 8.832,0 16,-7.168 16,-16 v -256 c 0,-8.832 -7.168,-16 -16,-16 z"
     id="path2" /><path
     style="fill:#2196f3"
     d="m 282.208,19.691 c -3.648,-3.04 -8.544,-4.352 -13.152,-3.392 l -256,48 C 5.472,65.707 0,72.299 0,80.011 v 352 c 0,7.68 5.472,14.304 13.056,15.712 l 256,48 c 0.96,0.192 1.952,0.288 2.944,0.288 3.712,0 7.328,-1.28 10.208,-3.68 3.68,-3.04 5.792,-7.584 5.792,-12.32 v -448 c 0,-4.768 -2.112,-9.28 -5.792,-12.32 z"
     id="path4" /><path
     style="fill:#fafafa"
     d="m 144,368.011 c -44.096,0 -80,-43.072 -80,-96 0,-52.928 35.904,-96 80,-96 44.096,0 80,43.072 80,96 0,52.928 -35.904,96 -80,96 z m 0,-160 c -26.464,0 -48,28.704 -48,64 0,35.296 21.536,64 48,64 26.464,0 48,-28.704 48,-64 0,-35.296 -21.536,-64 -48,-64 z"
     id="path6" /></g>
<g
   id="g8">
</g>
<g
   id="g10">
</g>
<g
   id="g12">
</g>
<g
   id="g14">
</g>
<g
   id="g16">
</g>
<g
   id="g18">
</g>
<g
   id="g20">
</g>
<g
   id="g22">
</g>
<g
   id="g24">
</g>
<g
   id="g26">
</g>
<g
   id="g28">
</g>
<g
   id="g30">
</g>
<g
   id="g32">
</g>
<g
   id="g34">
</g>
<g
   id="g36">
</g>
</svg>
