<?xml version="1.0" encoding="UTF-8" standalone="no"?>
<svg
   xmlns:dc="http://purl.org/dc/elements/1.1/"
   xmlns:cc="http://creativecommons.org/ns#"
   xmlns:rdf="http://www.w3.org/1999/02/22-rdf-syntax-ns#"
   xmlns:svg="http://www.w3.org/2000/svg"
   xmlns="http://www.w3.org/2000/svg"
   xmlns:sodipodi="http://sodipodi.sourceforge.net/DTD/sodipodi-0.dtd"
   xmlns:inkscape="http://www.inkscape.org/namespaces/inkscape"
   version="1.1"
   id="Layer_1"
   x="0px"
   y="0px"
   viewBox="0 0 300 300"
   xml:space="preserve"
   sodipodi:docname="pinterest.svg"
   width="300"
   height="300"
   inkscape:version="1.0.1 (3bc2e813f5, 2020-09-07)"><metadata
   id="metadata39"><rdf:RDF><cc:Work
       rdf:about=""><dc:format>image/svg+xml</dc:format><dc:type
         rdf:resource="http://purl.org/dc/dcmitype/StillImage" /><dc:title></dc:title></cc:Work></rdf:RDF></metadata><defs
   id="defs37" /><sodipodi:namedview
   pagecolor="#ffffff"
   bordercolor="#666666"
   borderopacity="1"
   objecttolerance="10"
   gridtolerance="10"
   guidetolerance="10"
   inkscape:pageopacity="0"
   inkscape:pageshadow="2"
   inkscape:window-width="1366"
   inkscape:window-height="705"
   id="namedview35"
   showgrid="false"
   inkscape:zoom="1.005735"
   inkscape:cx="256.4415"
   inkscape:cy="176.89768"
   inkscape:window-x="-8"
   inkscape:window-y="-8"
   inkscape:window-maximized="1"
   inkscape:current-layer="Layer_1" />
<path
   style="fill:#cb1f24;stroke-width:0.571558"
   d="m 150,3.4294 c -80.727413,0 -146.31883,65.591417 -146.31883,146.31883 0,60.04102 35.822965,111.50524 87.791299,134.20981 -0.504686,-10.09086 0,-22.70457 2.522856,-33.8048 3.027543,-12.10902 18.668225,-79.71861 18.668225,-79.71861 0,0 -4.54103,-9.58617 -4.54103,-23.20926 0,-21.69576 12.61371,-37.84113 28.2544,-37.84113 13.1184,0 19.67759,10.09085 19.67759,22.19988 0,13.1184 -8.57737,33.30011 -13.11839,51.96833 -3.53166,15.64126 7.568,28.2544 23.20925,28.2544 27.75028,0 46.41851,-35.82297 46.41851,-77.70044 0,-32.29131 -21.69577,-56.004681 -61.05039,-56.004681 -44.40034,0 -72.150048,33.300111 -72.150048,70.131871 0,12.61371 3.531657,21.69577 9.58617,28.75908 2.522857,3.02755 3.027542,4.54103 2.018171,8.07269 -0.504686,2.52285 -2.522857,9.08205 -3.027542,11.60434 -1.009372,3.53165 -4.036342,5.04571 -7.567999,3.53165 -20.686396,-8.57737 -29.768452,-30.77725 -29.768452,-56.00467 0,-41.37279 34.813594,-91.322956 104.44135,-91.322956 56.00468,0 92.83702,40.363993 92.83702,83.754956 0,57.51816 -31.78663,100.40501 -78.70925,100.40501 -15.64125,0 -30.77725,-8.57737 -35.82296,-18.16354 0,0 -8.57737,33.8048 -10.09086,40.36399 -3.02754,11.10023 -9.08205,22.70457 -14.63188,31.28194 13.1184,4.03634 27.24559,6.05451 41.37279,6.05451 80.72742,0 146.31883,-65.59141 146.31883,-146.31883 C 296.31883,69.524359 230.72799,3.4294 150,3.4294"
   id="path2" />
<g
   id="g4">
</g>
<g
   id="g6">
</g>
<g
   id="g8">
</g>
<g
   id="g10">
</g>
<g
   id="g12">
</g>
<g
   id="g14">
</g>
<g
   id="g16">
</g>
<g
   id="g18">
</g>
<g
   id="g20">
</g>
<g
   id="g22">
</g>
<g
   id="g24">
</g>
<g
   id="g26">
</g>
<g
   id="g28">
</g>
<g
   id="g30">
</g>
<g
   id="g32">
</g>
</svg>
